<svg width="40" height="40" viewBox="0 0 40 40" fill="none" xmlns="http://www.w3.org/2000/svg">
<path d="M40 20C40 20.6811 39.9381 21.3622 39.8762 22.0433C39.5046 25.5728 38.2663 28.7926 36.3467 31.517C32.6935 36.6563 26.7492 40 20 40C10.774 40 3.03406 33.808 0.743034 25.387C0.247678 23.6533 0 21.8576 0 20C0 8.97833 8.97833 0 20 0C20.9907 0 21.9814 0.0619204 22.9721 0.247679C27.0588 0.866874 30.774 2.72446 33.6842 5.44892C37.2755 8.79257 39.6285 13.4985 39.9381 18.6997C40 19.1331 40 19.5666 40 20Z" fill="#F5FBFF"/>
<g clip-path="url(#clip0)">
<path d="M24.9358 12.6052L20.237 11.0384C20.0832 10.9872 19.9168 10.9872 19.763 11.0384L15.0643 12.6052C14.3172 12.8533 13.6673 13.3306 13.207 13.9692C12.7467 14.6078 12.4993 15.3752 12.5 16.1624V20.0002C12.5 25.6724 19.4 28.8052 19.6955 28.9357C19.7914 28.9783 19.8951 29.0003 20 29.0003C20.1049 29.0003 20.2086 28.9783 20.3045 28.9357C20.6 28.8052 27.5 25.6724 27.5 20.0002V16.1624C27.5007 15.3752 27.2533 14.6078 26.793 13.9692C26.3327 13.3306 25.6828 12.8533 24.9358 12.6052ZM26 20.0002C26 24.0914 21.2608 26.7749 20 27.4169C18.7378 26.7772 14 24.1019 14 20.0002V16.1624C14 15.6901 14.1487 15.2298 14.4249 14.8467C14.7011 14.4636 15.0909 14.1772 15.539 14.0279L20 12.5407L24.461 14.0279C24.9091 14.1772 25.2989 14.4636 25.5751 14.8467C25.8513 15.2298 26 15.6901 26 16.1624V20.0002Z" fill="#4288DE"/>
<path d="M22.475 17.2238L19.334 20.3738L17.651 18.6188C17.5834 18.545 17.5018 18.4854 17.4109 18.4436C17.3199 18.4018 17.2216 18.3786 17.1215 18.3754C17.0215 18.3722 16.9219 18.389 16.8284 18.4249C16.735 18.4609 16.6497 18.5151 16.5776 18.5845C16.5055 18.6538 16.448 18.7369 16.4085 18.8289C16.369 18.9208 16.3482 19.0198 16.3476 19.1198C16.3469 19.2199 16.3662 19.3191 16.4044 19.4116C16.4427 19.5041 16.4991 19.588 16.5702 19.6583L18.2997 21.4583C18.4287 21.5977 18.5846 21.7094 18.758 21.7867C18.9314 21.8641 19.1186 21.9054 19.3085 21.9083H19.3332C19.5193 21.9089 19.7036 21.8726 19.8754 21.8014C20.0473 21.7302 20.2034 21.6256 20.3345 21.4936L23.5385 18.2896C23.6084 18.2198 23.664 18.1368 23.7019 18.0455C23.7398 17.9542 23.7594 17.8564 23.7595 17.7575C23.7596 17.6586 23.7403 17.5607 23.7025 17.4694C23.6648 17.378 23.6094 17.2949 23.5396 17.225C23.4698 17.155 23.3868 17.0994 23.2955 17.0615C23.2042 17.0236 23.1064 17.004 23.0075 17.0039C22.9087 17.0038 22.8107 17.0232 22.7194 17.0609C22.628 17.0986 22.5449 17.154 22.475 17.2238Z" fill="#4288DE"/>
</g>
<defs>
<clipPath id="clip0">
<rect width="18" height="18" fill="white" transform="translate(11 11)"/>
</clipPath>
</defs>
</svg>
