<svg width="40" height="40" viewBox="0 0 40 40" fill="none" xmlns="http://www.w3.org/2000/svg">
<path d="M40 20C40 20.6811 39.9381 21.3622 39.8762 22.0433C39.5046 25.5728 38.2663 28.7926 36.3468 31.517C32.6935 36.6563 26.7492 40 20 40C10.774 40 3.03406 33.8081 0.743034 25.387C0.247678 23.6533 0 21.8576 0 20C0 8.97833 8.97833 0 20 0C20.9907 0 21.9814 0.0619204 22.9721 0.247679C27.0588 0.866874 30.774 2.72446 33.6842 5.44892C37.2755 8.79257 39.6285 13.4985 39.9381 18.6997C40 19.1331 40 19.5666 40 20Z" fill="#F5FBFF"/>
<g clip-path="url(#clip0)">
<path d="M26.9071 11.8619L25.3891 10.342C24.9644 9.91514 24.4592 9.57673 23.9028 9.34638C23.3465 9.11602 22.7499 8.9983 22.1478 9.00002H16.3333C15.1182 9.00147 13.9533 9.48483 13.094 10.3441C12.2348 11.2033 11.7515 12.3682 11.75 13.5834V26.4167C11.7515 27.6318 12.2348 28.7968 13.094 29.656C13.9533 30.5152 15.1182 30.9986 16.3333 31H23.6667C24.8818 30.9986 26.0467 30.5152 26.906 29.656C27.7652 28.7968 28.2485 27.6318 28.25 26.4167V15.1023C28.2515 14.5002 28.1336 13.9038 27.903 13.3476C27.6725 12.7914 27.334 12.2864 26.9071 11.8619ZM25.6109 13.158C25.7409 13.2876 25.8574 13.4301 25.9583 13.5834H23.6667V11.2917C23.8197 11.3937 23.9624 11.5104 24.0929 11.64L25.6109 13.158ZM26.4167 26.4167C26.4167 27.146 26.1269 27.8455 25.6112 28.3612C25.0955 28.877 24.396 29.1667 23.6667 29.1667H16.3333C15.604 29.1667 14.9045 28.877 14.3888 28.3612C13.8731 27.8455 13.5833 27.146 13.5833 26.4167V13.5834C13.5833 12.854 13.8731 12.1545 14.3888 11.6388C14.9045 11.1231 15.604 10.8334 16.3333 10.8334H21.8333V13.5834C21.8333 14.0696 22.0265 14.5359 22.3703 14.8797C22.7141 15.2235 23.1804 15.4167 23.6667 15.4167H26.4167V26.4167ZM23.6667 17.25C23.9098 17.25 24.1429 17.3466 24.3148 17.5185C24.4868 17.6904 24.5833 17.9236 24.5833 18.1667C24.5833 18.4098 24.4868 18.643 24.3148 18.8149C24.1429 18.9868 23.9098 19.0834 23.6667 19.0834H16.3333C16.0902 19.0834 15.8571 18.9868 15.6852 18.8149C15.5132 18.643 15.4167 18.4098 15.4167 18.1667C15.4167 17.9236 15.5132 17.6904 15.6852 17.5185C15.8571 17.3466 16.0902 17.25 16.3333 17.25H23.6667ZM24.5833 21.8334C24.5833 22.0765 24.4868 22.3096 24.3148 22.4815C24.1429 22.6534 23.9098 22.75 23.6667 22.75H16.3333C16.0902 22.75 15.8571 22.6534 15.6852 22.4815C15.5132 22.3096 15.4167 22.0765 15.4167 21.8334C15.4167 21.5902 15.5132 21.3571 15.6852 21.1852C15.8571 21.0133 16.0902 20.9167 16.3333 20.9167H23.6667C23.9098 20.9167 24.1429 21.0133 24.3148 21.1852C24.4868 21.3571 24.5833 21.5902 24.5833 21.8334ZM24.4073 24.9619C24.5498 25.158 24.6089 25.4024 24.5716 25.6419C24.5343 25.8814 24.4038 26.0963 24.2084 26.2398C23.2797 26.9016 22.1797 27.2813 21.0404 27.3334C20.3748 27.3301 19.7294 27.1043 19.2071 26.6917C18.9064 26.4854 18.7918 26.4167 18.5654 26.4167C17.9526 26.5115 17.3743 26.7621 16.8861 27.1445C16.6924 27.2826 16.4527 27.34 16.2176 27.3046C15.9824 27.2692 15.7702 27.1438 15.6257 26.9548C15.4813 26.7659 15.416 26.5282 15.4435 26.292C15.471 26.0558 15.5892 25.8395 15.7733 25.6889C16.581 25.0618 17.5509 24.6783 18.5691 24.5834C19.1797 24.5931 19.77 24.8042 20.2484 25.1838C20.4665 25.3799 20.7472 25.492 21.0404 25.5C21.79 25.4439 22.5107 25.1878 23.1277 24.7584C23.3244 24.6158 23.5697 24.5572 23.8096 24.5953C24.0496 24.6335 24.2646 24.7654 24.4073 24.9619Z" fill="#4288DE"/>
</g>
<defs>
<clipPath id="clip0">
<rect width="22" height="22" fill="white" transform="translate(9 9)"/>
</clipPath>
</defs>
</svg>
